# xmcd CD database file
#
# Track frame offsets:
#	182
#	15770
#	32167
#	43555
#	64047
#	78647
#	91585
#	103960
#	115820
#	128705
#	140967
#	153925
#	163005
#	174667
#	191207
#	207665
#	220435
#	232775
#
# Disc length: 3348 seconds
#
# Revision: 2
# Processed by: cddbd v1.4PL0 Copyright (c) Steve Scherf et al.
# Submitted via: CDex 1.50
#
DISCID=f90d1212
DTITLE=Various Artist - Number One Country Love Songs Disc 2
DYEAR=1900
DGENRE=Country
TTITLE0=Crystal Gale and Gary Morris - Makin' Up For Lost Time
TTITLE1=Oak Ridge Boys - Fancy Free
TTITLE2=Donna Fargo - The Happiest Girl In The Whole U.S.A.
TTITLE3=Charlie Pride - You're So Good When You're Bad
TTITLE4=The Forester Sisters - I Fell In Love Again Last Night
TTITLE5=Mel Tillis - Good Woman Blues
TTITLE6=Eddy Raven - I'm Gonna Get You
TTITLE7=John Schneider - I've Been Around Enough To Know
TTITLE8=Michael Martin Murphey - What's Forever For
TTITLE9=Johnny Lee - Bet Your Heart On Me
TTITLE10=T.G. Sheppard - I'll Be Coming Back For More
TTITLE11=Johnny Ridriguez - Just Get Up And Close The Door
TTITLE12=Holly Dunn - Are You Ever Gonna Love Me
TTITLE13=Eddie Rabbitt - You Can't Run From Love
TTITLE14=John Conlee - In My Eyes
TTITLE15=Don Williams - Some Broken Hearts Never Mend
TTITLE16=Crystal Gayle - Baby, What About You
TTITLE17=Juice Newton - The Sweetest Thing (I've Ever Known)
EXTD=
EXTT0=
EXTT1=
EXTT2=
EXTT3=
EXTT4=
EXTT5=
EXTT6=
EXTT7=
EXTT8=
EXTT9=
EXTT10=
EXTT11=
EXTT12=
EXTT13=
EXTT14=
EXTT15=
EXTT16=
EXTT17=
PLAYORDER=
